<svg xmlns="http://www.w3.org/2000/svg" width="313" height="119" viewBox="0 0 312.55 119.00" role="img" aria-label="losec.io"><title>losec.io</title><desc>A near-closed ring with a single marked breach: the perimeter, and the hole found in it.</desc><circle cx="59.50" cy="59.50" r="32.00" fill="none" stroke="#5DCAA5" stroke-width="7.01" stroke-linecap="round" stroke-dasharray="158.06 43.00"/><circle cx="59.50" cy="59.50" r="6.52" fill="#9FE1CB"/><circle cx="85.06" cy="40.24" r="6.52" fill="#F0997B"/><g transform="translate(121.00,76.30)"><path d="M3.5097797851562498 0.0V-32.2H8.24325390625V0.0ZM25.3163955078125 0.644Q21.912395507812498 0.644 19.254741577148437 -0.7601483154296875Q16.597087646484376 -2.164296630859375 15.089433715820313 -4.778247192382812Q13.58177978515625 -7.39219775390625 13.58177978515625 -10.991703369140625V-11.663307861328125Q13.58177978515625 -15.2628134765625 15.089433715820313 -17.876764038085938Q16.597087646484376 -20.490714599609376 19.254741577148437 -21.894862915039063Q21.912395507812498 -23.29901123046875 25.3163955078125 -23.29901123046875Q28.720395507812498 -23.29901123046875 31.378049438476562 -21.894862915039063Q34.03570336914063 -20.490714599609376 35.54335729980469 -17.876764038085938Q37.05101123046875 -15.2628134765625 37.05101123046875 -11.663307861328125V-10.991703369140625Q37.05101123046875 -7.39219775390625 35.54335729980469 -4.778247192382812Q34.03570336914063 -2.164296630859375 31.378049438476562 -0.7601483154296875Q28.720395507812498 0.644 25.3163955078125 0.644ZM25.3163955078125 -3.57426513671875Q28.4351640625 -3.57426513671875 30.3763505859375 -5.572946044921875Q32.317537109375 -7.571626953125 32.317537109375 -11.1136044921875V-11.54140673828125Q32.317537109375 -15.08338427734375 30.39130114746094 -17.082065185546874Q28.465065185546877 -19.08074609375 25.3163955078125 -19.08074609375Q22.213725830078126 -19.08074609375 20.264489868164063 -17.082065185546874Q18.31525390625 -15.08338427734375 18.31525390625 -11.54140673828125V-11.1136044921875Q18.31525390625 -7.571626953125 20.264489868164063 -5.572946044921875Q22.213725830078126 -3.57426513671875 25.3163955078125 -3.57426513671875ZM51.64249438476563 0.644Q47.32538427734375 0.644 44.46533483886719 -1.2879999999999998Q41.60528540039063 -3.2199999999999998 40.9911865234375 -7.113878662109375L45.409550537109375 -8.188Q45.7476494140625 -6.28822021484375 46.6354404296875 -5.199182006835938Q47.5232314453125 -4.110143798828125 48.82731909179687 -3.6466988525390627Q50.13140673828125 -3.18325390625 51.64249438476563 -3.18325390625Q53.92407641601562 -3.18325390625 55.139609008789066 -4.041143798828125Q56.3551416015625 -4.89903369140625 56.3551416015625 -6.2790112304687495Q56.3551416015625 -7.675087646484375 55.20170788574219 -8.322532592773438Q54.048274169921875 -8.9699775390625 51.81498876953125 -9.37017529296875L50.237208984375 -9.648471923828124Q47.94180224609375 -10.076274169921875 46.0603955078125 -10.86517529296875Q44.17898876953125 -11.654076416015625 43.055433715820314 -13.03177978515625Q41.931878662109376 -14.409483154296876 41.931878662109376 -16.550791015625Q41.931878662109376 -19.777703369140625 44.34343371582031 -21.538357299804687Q46.75498876953125 -23.29901123046875 50.7063955078125 -23.29901123046875Q54.5243955078125 -23.29901123046875 56.98195056152343 -21.588961791992187Q59.439505615234374 -19.878912353515624 60.15711010742187 -16.941824707031248L55.757141601562495 -15.67219775390625Q55.356943847656254 -17.74217529296875 54.020658447265625 -18.606966308593748Q52.684373046874995 -19.47175732421875 50.7063955078125 -19.47175732421875Q48.744516845703124 -19.47175732421875 47.64513256835937 -18.759916870117188Q46.54574829101563 -18.048076416015626 46.54574829101563 -16.73019775390625Q46.54574829101563 -15.36861572265625 47.62673706054687 -14.726923583984375Q48.707725830078125 -14.0852314453125 50.561505615234374 -13.760934814453124L52.13928540039063 -13.48263818359375Q54.618692138671875 -13.0548359375 56.62314831542969 -12.311934814453124Q58.6276044921875 -11.56903369140625 59.79830786132813 -10.206280883789063Q60.96901123046875 -8.843528076171875 60.96901123046875 -6.548121337890625Q60.96901123046875 -3.10501123046875 58.442456176757815 -1.230505615234375Q55.91590112304688 0.644 51.64249438476563 0.644ZM76.28958203124999 0.644Q72.86948315429687 0.644 70.28658203124999 -0.8049999999999999Q67.70368090820313 -2.254 66.26273034667969 -4.890950561523438Q64.82177978515625 -7.527901123046875 64.82177978515625 -11.051505615234374V-11.603505615234376Q64.82177978515625 -15.143208984375 66.24777978515624 -17.772110107421874Q67.67377978515624 -20.40101123046875 70.22563146972655 -21.850011230468752Q72.77748315429687 -23.29901123046875 76.11708764648438 -23.29901123046875Q79.39459326171874 -23.29901123046875 81.85444494628905 -21.86840673828125Q84.31429663085937 -20.43780224609375 85.69429663085938 -17.85719775390625Q87.07429663085938 -15.27659326171875 87.07429663085938 -11.812791015625V-10.011878662109375H69.61505615234374Q69.72315502929688 -7.021923583984375 71.64478649902344 -5.268193237304687Q73.56641796875 -3.514462890625 76.4091865234375 -3.514462890625Q79.08866967773437 -3.514462890625 80.43990563964843 -4.70125390625Q81.7911416015625 -5.888044921875 82.50183374023437 -7.449725830078125L86.45098876953125 -5.448692138671875Q85.79088989257812 -4.14 84.57188989257813 -2.720901123046875Q83.35288989257812 -1.30180224609375 81.36108764648438 -0.32890112304687497Q79.36928540039062 0.644 76.28958203124999 0.644ZM69.66105615234375 -13.659725830078125H82.26492138671875Q82.08092138671874 -16.217285400390626 80.41228991699218 -17.678916870117188Q78.74365844726562 -19.14054833984375 76.0871865234375 -19.14054833984375Q73.38701123046874 -19.14054833984375 71.71723144531249 -17.678916870117188Q70.04745166015624 -16.217285400390626 69.66105615234375 -13.659725830078125ZM102.73069213867187 0.644Q99.434791015625 0.644 96.79208764648436 -0.7440494384765624Q94.14938427734374 -2.132098876953125 92.61758203125 -4.754098876953125Q91.08577978515625 -7.376098876953125 91.08577978515625 -11.037703369140624V-11.617307861328126Q91.08577978515625 -15.29501123046875 92.61758203125 -17.908961791992187Q94.14938427734374 -20.522912353515625 96.79208764648436 -21.910961791992186Q99.434791015625 -23.29901123046875 102.73069213867187 -23.29901123046875Q105.98059326171874 -23.29901123046875 108.28634606933593 -22.12486291503906Q110.59209887695312 -20.950714599609373 111.97670336914061 -18.9658134765625Q113.36130786132811 -16.980912353515624 113.77301123046874 -14.579703369140624L109.17524047851562 -13.609087646484374Q108.97514160156248 -15.1339775390625 108.23454833984374 -16.37481799316406Q107.493955078125 -17.615658447265623 106.15191687011719 -18.348202270507812Q104.80987866210937 -19.08074609375 102.82039550781249 -19.08074609375Q100.83091235351561 -19.08074609375 99.24277526855468 -18.192955078125003Q97.65463818359375 -17.3051640625 96.73694604492186 -15.6169775390625Q95.81925390625 -13.928791015625 95.81925390625 -11.54140673828125V-11.1136044921875Q95.81925390625 -8.72622021484375 96.73694604492186 -7.03803369140625Q97.65463818359375 -5.34984716796875 99.24277526855468 -4.46205615234375Q100.83091235351561 -3.57426513671875 102.82039550781249 -3.57426513671875Q105.81266967773436 -3.57426513671875 107.37090563964843 -5.12445166015625Q108.92914160156249 -6.67463818359375 109.32933935546875 -9.07582470703125L113.92711010742187 -8.015505615234375Q113.39350561523437 -5.674098876953125 111.99280224609375 -3.68919775390625Q110.59209887695312 -1.704296630859375 108.28634606933593 -0.5301483154296875Q105.98059326171874 0.644 102.73069213867187 0.644Z" fill="#F4F6F5"/><path d="M123.22751715087888 0.644Q121.8707628173828 0.644 120.98136444091796 -0.23515012862042678Q120.0919660644531 -1.1143002572408536 120.0919660644531 -2.4879723332102706Q120.0919660644531 -3.8616444091796875 120.98136444091796 -4.737703796386718Q121.8707628173828 -5.61376318359375 123.22751715087888 -5.61376318359375Q124.58427148437498 -5.61376318359375 125.46700036621093 -4.734613054973323Q126.34972924804686 -3.8554629263528963 126.34972924804686 -2.4817908503834794Q126.34972924804686 -1.1081187744140626 125.46700036621093 -0.2320593872070313Q124.58427148437498 0.644 123.22751715087888 0.644ZM132.25789819335935 0.0V-22.489389892578124H135.898271484375V0.0ZM134.07808483886717 -26.006576171875Q132.9060169677734 -26.006576171875 132.102635559082 -26.78994909667969Q131.2992541503906 -27.573322021484376 131.2992541503906 -28.77206787109375Q131.2992541503906 -30.003474731445312 132.102635559082 -30.770517150878906Q132.9060169677734 -31.5375595703125 134.07808483886717 -31.5375595703125Q135.29615270996092 -31.5375595703125 136.07653411865232 -30.770517150878906Q136.85691552734372 -30.003474731445312 136.85691552734372 -28.77206787109375Q136.85691552734372 -27.573322021484376 136.07653411865232 -26.78994909667969Q135.29615270996092 -26.006576171875 134.07808483886717 -26.006576171875ZM153.32664404296872 0.644Q149.92264404296873 0.644 147.32295758056637 -0.7849915161132812Q144.72327111816404 -2.2139830322265626 143.27358465576168 -4.819652526855469Q141.82389819335935 -7.425322021484375 141.82389819335935 -10.942016967773437V-11.547372924804687Q141.82389819335935 -15.06406787109375 143.27358465576168 -17.669737365722657Q144.72327111816404 -20.275406860351563 147.32295758056637 -21.704398376464844Q149.92264404296873 -23.133389892578126 153.32664404296872 -23.133389892578126Q156.73064404296872 -23.133389892578126 159.33033050537108 -21.704398376464844Q161.9300169677734 -20.275406860351563 163.37970343017577 -17.669737365722657Q164.8293898925781 -15.06406787109375 164.8293898925781 -11.547372924804687V-10.942016967773437Q164.8293898925781 -7.425322021484375 163.37970343017577 -4.819652526855469Q161.9300169677734 -2.2139830322265626 159.33033050537108 -0.7849915161132812Q156.73064404296872 0.644 153.32664404296872 0.644ZM153.32664404296872 -2.613661376953125Q156.90915234374998 -2.613661376953125 159.04908447265623 -4.893898559570312Q161.18901660156249 -7.1741357421875 161.18901660156249 -11.04735595703125V-11.442033935546874Q161.18901660156249 -15.315254150390624 159.05575396728514 -17.59549133300781Q156.9224913330078 -19.875728515625 153.32664404296872 -19.875728515625Q149.77679675292967 -19.875728515625 147.62053411865233 -17.59549133300781Q145.464271484375 -15.315254150390624 145.464271484375 -11.442033935546874V-11.04735595703125Q145.464271484375 -7.1741357421875 147.62053411865233 -4.893898559570312Q149.77679675292967 -2.613661376953125 153.32664404296872 -2.613661376953125Z" fill="#8A9793"/></g></svg>