<svg xmlns="http://www.w3.org/2000/svg" width="224" height="197" viewBox="0 0 223.55 197.44" role="img" aria-label="losec.io"><title>losec.io</title><desc>A near-closed ring with a single marked breach: the perimeter, and the hole found in it.</desc><circle cx="111.77" cy="65.72" r="34.00" fill="none" stroke="#5DCAA5" stroke-width="7.45" stroke-linecap="round" stroke-dasharray="167.94 45.69"/><circle cx="111.77" cy="65.72" r="6.92" fill="#9FE1CB"/><circle cx="138.93" cy="45.26" r="6.92" fill="#F0997B"/><g transform="translate(28.00,137.44)"><path d="M3.5097797851562498 0.0V-32.2H8.24325390625V0.0ZM25.3163955078125 0.644Q21.912395507812498 0.644 19.254741577148437 -0.7601483154296875Q16.597087646484376 -2.164296630859375 15.089433715820313 -4.778247192382812Q13.58177978515625 -7.39219775390625 13.58177978515625 -10.991703369140625V-11.663307861328125Q13.58177978515625 -15.2628134765625 15.089433715820313 -17.876764038085938Q16.597087646484376 -20.490714599609376 19.254741577148437 -21.894862915039063Q21.912395507812498 -23.29901123046875 25.3163955078125 -23.29901123046875Q28.720395507812498 -23.29901123046875 31.378049438476562 -21.894862915039063Q34.03570336914063 -20.490714599609376 35.54335729980469 -17.876764038085938Q37.05101123046875 -15.2628134765625 37.05101123046875 -11.663307861328125V-10.991703369140625Q37.05101123046875 -7.39219775390625 35.54335729980469 -4.778247192382812Q34.03570336914063 -2.164296630859375 31.378049438476562 -0.7601483154296875Q28.720395507812498 0.644 25.3163955078125 0.644ZM25.3163955078125 -3.57426513671875Q28.4351640625 -3.57426513671875 30.3763505859375 -5.572946044921875Q32.317537109375 -7.571626953125 32.317537109375 -11.1136044921875V-11.54140673828125Q32.317537109375 -15.08338427734375 30.39130114746094 -17.082065185546874Q28.465065185546877 -19.08074609375 25.3163955078125 -19.08074609375Q22.213725830078126 -19.08074609375 20.264489868164063 -17.082065185546874Q18.31525390625 -15.08338427734375 18.31525390625 -11.54140673828125V-11.1136044921875Q18.31525390625 -7.571626953125 20.264489868164063 -5.572946044921875Q22.213725830078126 -3.57426513671875 25.3163955078125 -3.57426513671875ZM51.64249438476563 0.644Q47.32538427734375 0.644 44.46533483886719 -1.2879999999999998Q41.60528540039063 -3.2199999999999998 40.9911865234375 -7.113878662109375L45.409550537109375 -8.188Q45.7476494140625 -6.28822021484375 46.6354404296875 -5.199182006835938Q47.5232314453125 -4.110143798828125 48.82731909179687 -3.6466988525390627Q50.13140673828125 -3.18325390625 51.64249438476563 -3.18325390625Q53.92407641601562 -3.18325390625 55.139609008789066 -4.041143798828125Q56.3551416015625 -4.89903369140625 56.3551416015625 -6.2790112304687495Q56.3551416015625 -7.675087646484375 55.20170788574219 -8.322532592773438Q54.048274169921875 -8.9699775390625 51.81498876953125 -9.37017529296875L50.237208984375 -9.648471923828124Q47.94180224609375 -10.076274169921875 46.0603955078125 -10.86517529296875Q44.17898876953125 -11.654076416015625 43.055433715820314 -13.03177978515625Q41.931878662109376 -14.409483154296876 41.931878662109376 -16.550791015625Q41.931878662109376 -19.777703369140625 44.34343371582031 -21.538357299804687Q46.75498876953125 -23.29901123046875 50.7063955078125 -23.29901123046875Q54.5243955078125 -23.29901123046875 56.98195056152343 -21.588961791992187Q59.439505615234374 -19.878912353515624 60.15711010742187 -16.941824707031248L55.757141601562495 -15.67219775390625Q55.356943847656254 -17.74217529296875 54.020658447265625 -18.606966308593748Q52.684373046874995 -19.47175732421875 50.7063955078125 -19.47175732421875Q48.744516845703124 -19.47175732421875 47.64513256835937 -18.759916870117188Q46.54574829101563 -18.048076416015626 46.54574829101563 -16.73019775390625Q46.54574829101563 -15.36861572265625 47.62673706054687 -14.726923583984375Q48.707725830078125 -14.0852314453125 50.561505615234374 -13.760934814453124L52.13928540039063 -13.48263818359375Q54.618692138671875 -13.0548359375 56.62314831542969 -12.311934814453124Q58.6276044921875 -11.56903369140625 59.79830786132813 -10.206280883789063Q60.96901123046875 -8.843528076171875 60.96901123046875 -6.548121337890625Q60.96901123046875 -3.10501123046875 58.442456176757815 -1.230505615234375Q55.91590112304688 0.644 51.64249438476563 0.644ZM76.28958203124999 0.644Q72.86948315429687 0.644 70.28658203124999 -0.8049999999999999Q67.70368090820313 -2.254 66.26273034667969 -4.890950561523438Q64.82177978515625 -7.527901123046875 64.82177978515625 -11.051505615234374V-11.603505615234376Q64.82177978515625 -15.143208984375 66.24777978515624 -17.772110107421874Q67.67377978515624 -20.40101123046875 70.22563146972655 -21.850011230468752Q72.77748315429687 -23.29901123046875 76.11708764648438 -23.29901123046875Q79.39459326171874 -23.29901123046875 81.85444494628905 -21.86840673828125Q84.31429663085937 -20.43780224609375 85.69429663085938 -17.85719775390625Q87.07429663085938 -15.27659326171875 87.07429663085938 -11.812791015625V-10.011878662109375H69.61505615234374Q69.72315502929688 -7.021923583984375 71.64478649902344 -5.268193237304687Q73.56641796875 -3.514462890625 76.4091865234375 -3.514462890625Q79.08866967773437 -3.514462890625 80.43990563964843 -4.70125390625Q81.7911416015625 -5.888044921875 82.50183374023437 -7.449725830078125L86.45098876953125 -5.448692138671875Q85.79088989257812 -4.14 84.57188989257813 -2.720901123046875Q83.35288989257812 -1.30180224609375 81.36108764648438 -0.32890112304687497Q79.36928540039062 0.644 76.28958203124999 0.644ZM69.66105615234375 -13.659725830078125H82.26492138671875Q82.08092138671874 -16.217285400390626 80.41228991699218 -17.678916870117188Q78.74365844726562 -19.14054833984375 76.0871865234375 -19.14054833984375Q73.38701123046874 -19.14054833984375 71.71723144531249 -17.678916870117188Q70.04745166015624 -16.217285400390626 69.66105615234375 -13.659725830078125ZM102.73069213867187 0.644Q99.434791015625 0.644 96.79208764648436 -0.7440494384765624Q94.14938427734374 -2.132098876953125 92.61758203125 -4.754098876953125Q91.08577978515625 -7.376098876953125 91.08577978515625 -11.037703369140624V-11.617307861328126Q91.08577978515625 -15.29501123046875 92.61758203125 -17.908961791992187Q94.14938427734374 -20.522912353515625 96.79208764648436 -21.910961791992186Q99.434791015625 -23.29901123046875 102.73069213867187 -23.29901123046875Q105.98059326171874 -23.29901123046875 108.28634606933593 -22.12486291503906Q110.59209887695312 -20.950714599609373 111.97670336914061 -18.9658134765625Q113.36130786132811 -16.980912353515624 113.77301123046874 -14.579703369140624L109.17524047851562 -13.609087646484374Q108.97514160156248 -15.1339775390625 108.23454833984374 -16.37481799316406Q107.493955078125 -17.615658447265623 106.15191687011719 -18.348202270507812Q104.80987866210937 -19.08074609375 102.82039550781249 -19.08074609375Q100.83091235351561 -19.08074609375 99.24277526855468 -18.192955078125003Q97.65463818359375 -17.3051640625 96.73694604492186 -15.6169775390625Q95.81925390625 -13.928791015625 95.81925390625 -11.54140673828125V-11.1136044921875Q95.81925390625 -8.72622021484375 96.73694604492186 -7.03803369140625Q97.65463818359375 -5.34984716796875 99.24277526855468 -4.46205615234375Q100.83091235351561 -3.57426513671875 102.82039550781249 -3.57426513671875Q105.81266967773436 -3.57426513671875 107.37090563964843 -5.12445166015625Q108.92914160156249 -6.67463818359375 109.32933935546875 -9.07582470703125L113.92711010742187 -8.015505615234375Q113.39350561523437 -5.674098876953125 111.99280224609375 -3.68919775390625Q110.59209887695312 -1.704296630859375 108.28634606933593 -0.5301483154296875Q105.98059326171874 0.644 102.73069213867187 0.644Z" fill="#F4F6F5"/><path d="M123.22751715087888 0.644Q121.8707628173828 0.644 120.98136444091796 -0.23515012862042678Q120.0919660644531 -1.1143002572408536 120.0919660644531 -2.4879723332102706Q120.0919660644531 -3.8616444091796875 120.98136444091796 -4.737703796386718Q121.8707628173828 -5.61376318359375 123.22751715087888 -5.61376318359375Q124.58427148437498 -5.61376318359375 125.46700036621093 -4.734613054973323Q126.34972924804686 -3.8554629263528963 126.34972924804686 -2.4817908503834794Q126.34972924804686 -1.1081187744140626 125.46700036621093 -0.2320593872070313Q124.58427148437498 0.644 123.22751715087888 0.644ZM132.25789819335935 0.0V-22.489389892578124H135.898271484375V0.0ZM134.07808483886717 -26.006576171875Q132.9060169677734 -26.006576171875 132.102635559082 -26.78994909667969Q131.2992541503906 -27.573322021484376 131.2992541503906 -28.77206787109375Q131.2992541503906 -30.003474731445312 132.102635559082 -30.770517150878906Q132.9060169677734 -31.5375595703125 134.07808483886717 -31.5375595703125Q135.29615270996092 -31.5375595703125 136.07653411865232 -30.770517150878906Q136.85691552734372 -30.003474731445312 136.85691552734372 -28.77206787109375Q136.85691552734372 -27.573322021484376 136.07653411865232 -26.78994909667969Q135.29615270996092 -26.006576171875 134.07808483886717 -26.006576171875ZM153.32664404296872 0.644Q149.92264404296873 0.644 147.32295758056637 -0.7849915161132812Q144.72327111816404 -2.2139830322265626 143.27358465576168 -4.819652526855469Q141.82389819335935 -7.425322021484375 141.82389819335935 -10.942016967773437V-11.547372924804687Q141.82389819335935 -15.06406787109375 143.27358465576168 -17.669737365722657Q144.72327111816404 -20.275406860351563 147.32295758056637 -21.704398376464844Q149.92264404296873 -23.133389892578126 153.32664404296872 -23.133389892578126Q156.73064404296872 -23.133389892578126 159.33033050537108 -21.704398376464844Q161.9300169677734 -20.275406860351563 163.37970343017577 -17.669737365722657Q164.8293898925781 -15.06406787109375 164.8293898925781 -11.547372924804687V-10.942016967773437Q164.8293898925781 -7.425322021484375 163.37970343017577 -4.819652526855469Q161.9300169677734 -2.2139830322265626 159.33033050537108 -0.7849915161132812Q156.73064404296872 0.644 153.32664404296872 0.644ZM153.32664404296872 -2.613661376953125Q156.90915234374998 -2.613661376953125 159.04908447265623 -4.893898559570312Q161.18901660156249 -7.1741357421875 161.18901660156249 -11.04735595703125V-11.442033935546874Q161.18901660156249 -15.315254150390624 159.05575396728514 -17.59549133300781Q156.9224913330078 -19.875728515625 153.32664404296872 -19.875728515625Q149.77679675292967 -19.875728515625 147.62053411865233 -17.59549133300781Q145.464271484375 -15.315254150390624 145.464271484375 -11.442033935546874V-11.04735595703125Q145.464271484375 -7.1741357421875 147.62053411865233 -4.893898559570312Q149.77679675292967 -2.613661376953125 153.32664404296872 -2.613661376953125Z" fill="#8A9793"/></g><g transform="translate(28.03,163.44)"><path d="M0.5528614501953125 0.0V-1.2231806640625L4.843096435546875 -6.741475952148437V-6.870614501953124H0.67848193359375V-7.699999999999999H5.751897583007812V-6.4768193359375L1.4616625976562498 -0.9585240478515624V-0.829385498046875H5.836379516601562V0.0ZM9.719204833984374 0.0V-7.699999999999999H14.458328308105468V-6.864234985351562H10.6401083984375V-4.285262023925781H14.150328308105468V-3.4494970092773434H10.6401083984375V-0.8357650146484374H14.508707824707031V0.0ZM18.402204833984374 0.0V-7.699999999999999H21.511897583007812Q22.230087341308593 -7.699999999999999 22.7729924621582 -7.454810241699218Q23.31589758300781 -7.209620483398437 23.62461294555664 -6.751525604248046Q23.933328308105466 -6.2934307250976556 23.933328308105466 -5.650810241699219V-5.534430725097656Q23.933328308105466 -4.778948791503906 23.572087341308592 -4.3382334289550775Q23.210846374511718 -3.8975180664062496 22.71122589111328 -3.7385692749023436V-3.587430725097656Q23.112174682617187 -3.5732409667968748 23.369795166015624 -3.327887054443359Q23.62741564941406 -3.0825331420898436 23.62741564941406 -2.5892921752929685V0.0H22.706512084960938V-2.4740150756835937Q22.706512084960938 -2.800497009277344 22.52996087646484 -2.9811174926757813Q22.353409667968748 -3.1617379760742184 21.987548217773437 -3.1617379760742184H19.323108398437498V0.0ZM19.323108398437498 -3.997502990722656H21.420379516601564Q22.17949700927734 -3.997502990722656 22.595960876464844 -4.3639156494140625Q23.012424743652343 -4.730328308105468 23.012424743652343 -5.395394592285156V-5.466343383789062Q23.012424743652343 -6.131409667968749 22.60536599731445 -6.497822326660156Q22.198307250976562 -6.864234985351562 21.420379516601564 -6.864234985351562H19.323108398437498ZM30.629948791503907 0.154Q29.248240966796875 0.154 28.429292175292968 -0.6435Q27.61034338378906 -1.4409999999999998 27.61034338378906 -2.9650512084960936V-4.734948791503906Q27.61034338378906 -6.2589999999999995 28.429292175292968 -7.0565Q29.248240966796875 -7.853999999999999 30.629948791503907 -7.853999999999999Q32.011656616210935 -7.853999999999999 32.83060540771484 -7.0565Q33.64955419921875 -6.2589999999999995 33.64955419921875 -4.734948791503906V-2.9650512084960936Q33.64955419921875 -1.4409999999999998 32.83060540771484 -0.6435Q32.011656616210935 0.154 30.629948791503907 0.154ZM30.629948791503907 -0.675385498046875Q31.631394592285154 -0.675385498046875 32.180022613525395 -1.2733493652343748Q32.72865063476563 -1.8713132324218749 32.72865063476563 -2.936671691894531V-4.763328308105469Q32.72865063476563 -5.828686767578125 32.180022613525395 -6.426650634765625Q31.631394592285154 -7.024614501953125 30.629948791503907 -7.024614501953125Q29.639502990722658 -7.024614501953125 29.085374969482423 -6.426650634765625Q28.531246948242188 -5.828686767578125 28.531246948242188 -4.763328308105469V-2.936671691894531Q28.531246948242188 -1.8713132324218749 29.085374969482423 -1.2733493652343748Q29.639502990722658 -0.675385498046875 30.629948791503907 -0.675385498046875ZM42.638620483398434 0.0V-0.8230059814453125H43.713102416992186V-6.876994018554687H42.638620483398434V-7.699999999999999H45.63479516601562Q47.15455419921875 -7.699999999999999 47.9864849243164 -6.929120483398437Q48.81841564941406 -6.158240966796875 48.81841564941406 -4.560379516601563V-3.1318102416992186Q48.81841564941406 -1.533948791503906 47.9864849243164 -0.766974395751953Q47.15455419921875 0.0 45.63479516601562 0.0ZM44.63400598144531 -0.8357650146484374H45.641174682617184Q46.75548193359375 -0.8357650146484374 47.32649700927735 -1.3836776733398437Q47.89751208496094 -1.93159033203125 47.89751208496094 -3.0956204833984375V-4.596569274902343Q47.89751208496094 -5.771599426269531 47.32649700927735 -6.314012084960938Q46.75548193359375 -6.856424743652344 45.641174682617184 -6.856424743652344H44.63400598144531ZM52.17610241699219 0.0 54.55156329345703 -7.699999999999999H56.175575256347656L58.5510361328125 0.0H57.59394281005859L57.00411749267578 -1.9439277343749999H53.7230210571289L53.13319573974609 0.0ZM53.96248791503906 -2.7860722656249997H56.76465063476562L55.43913854980469 -7.138460876464843H55.288ZM64.21344580078124 0.0V-2.9321687011718747L61.47048193359375 -7.699999999999999H62.53295477294922L64.59832830810547 -4.009487915039062H64.74946685791015L66.8148403930664 -7.699999999999999H67.87731323242187L65.13434936523437 -2.9321687011718747V0.0ZM73.9658614501953 0.154Q73.12172290039062 0.154 72.46315362548827 -0.1454743957519531Q71.80458435058593 -0.4449487915039062 71.42739459228514 -1.0428539123535157Q71.05020483398437 -1.640759033203125 71.05020483398437 -2.539240966796875V-2.776948791503906H71.96472888183594V-2.539240966796875Q71.96472888183594 -1.5806927490234375 72.52259786987304 -1.1170391235351562Q73.08046685791015 -0.653385498046875 73.9658614501953 -0.653385498046875Q74.86225604248047 -0.653385498046875 75.33619430541992 -1.055823760986328Q75.81013256835936 -1.458262023925781 75.81013256835936 -2.0842770996093747Q75.81013256835936 -2.5048102416992184 75.59739160156249 -2.761387054443359Q75.38465063476562 -3.0179638671875 74.99909942626952 -3.175704833984375Q74.61354821777343 -3.33344580078125 74.09511749267578 -3.4590662841796873L73.52189758300781 -3.5999789428710933Q72.84705120849608 -3.768168701171875 72.33131777954101 -4.022048217773437Q71.81558435058594 -4.275927734375 71.52479971313477 -4.688591888427734Q71.23401507568359 -5.101256042480468 71.23401507568359 -5.750584350585937Q71.23401507568359 -6.399912658691406 71.56170483398438 -6.87307681274414Q71.88939459228516 -7.346240966796874 72.47255874633788 -7.600120483398436Q73.05572290039062 -7.853999999999999 73.83386145019531 -7.853999999999999Q74.612 -7.853999999999999 75.23206927490233 -7.585215362548828Q75.85213854980468 -7.316430725097656 76.21282830810546 -6.792171691894531Q76.57351806640625 -6.267912658691406 76.57351806640625 -5.478774108886719V-5.016H75.65899401855468V-5.478774108886719Q75.65899401855468 -6.035927734375 75.42210696411132 -6.379625030517579Q75.18521990966796 -6.723322326660156 74.77249700927734 -6.88496841430664Q74.35977410888671 -7.046614501953124 73.83386145019531 -7.046614501953124Q73.07232830810547 -7.046614501953124 72.6104337158203 -6.713201843261718Q72.14853912353516 -6.3797891845703125 72.14853912353516 -5.763343383789062Q72.14853912353516 -5.352379516601562 72.34390057373047 -5.099707824707031Q72.53926202392577 -4.8470361328125 72.90264907836914 -4.691605407714844Q73.2660361328125 -4.536174682617188 73.77489758300781 -4.413743957519531L74.34811749267578 -4.272831298828125Q75.0169126586914 -4.120262023925781 75.55321536254883 -3.8725978698730463Q76.08951806640624 -3.6249337158203123 76.4070873413086 -3.201269561767578Q76.72465661621094 -2.7776054077148435 76.72465661621094 -2.0970361328125Q76.72465661621094 -1.4164668579101563 76.38277709960937 -0.9103027038574218Q76.0408975830078 -0.4041385498046875 75.4215436706543 -0.12506927490234376Q74.80218975830078 0.154 73.9658614501953 0.154ZM80.58294879150391 1.3748825073242186V0.8299487915039062H80.89479516601563Q81.29145178222656 0.8299487915039062 81.29145178222656 0.4332921752929687V0.08129217529296874H81.13569274902343Q80.82065661621094 0.08129217529296874 80.60725903320312 -0.11632077026367188Q80.39386145019532 -0.3139337158203125 80.39386145019532 -0.6194005737304688Q80.39386145019532 -0.9344367065429687 80.60725903320312 -1.1352394104003907Q80.82065661621094 -1.3360421142578125 81.13569274902343 -1.3360421142578125Q81.45391864013672 -1.3360421142578125 81.66572134399414 -1.1258342895507814Q81.87752404785157 -0.91562646484375 81.87752404785157 -0.5910210571289062V0.42405120849609373Q81.87752404785157 1.3748825073242186 80.93450299072266 1.3748825073242186ZM91.20320483398437 0.0V-7.699999999999999H92.96097583007813L95.00270782470703 -0.5838674316406249H95.15384637451172L97.19557836914062 -7.699999999999999H98.95334936523437V0.0H98.06082531738281V-7.093804260253906H97.90968676757812L95.87114453125 0.0H94.28540966796875L92.24686743164062 -7.093804260253906H92.09572888183594V0.0ZM103.20820483398437 0.0V-7.699999999999999H104.1291083984375V0.0ZM108.38220483398437 0.0V-7.699999999999999H110.17473486328124L112.85184039306641 -0.5838674316406249H113.0029789428711V-7.699999999999999H113.91750299072265V0.0H112.12497296142578L109.44786743164063 -7.123942810058593H109.29672888183593V0.0ZM120.95875903320312 0.154Q120.09867169189452 0.154 119.46122290039062 -0.15344879150390622Q118.82377410888671 -0.4608975830078125 118.47017922973632 -1.0692514953613281Q118.11658435058594 -1.6776054077148437 118.11658435058594 -2.5732258911132813V-7.699999999999999H119.03748791503907V-2.560466857910156Q119.03748791503907 -1.6221596069335937 119.5405210571289 -1.1487725524902344Q120.04355419921875 -0.675385498046875 120.95875903320312 -0.675385498046875Q121.8739638671875 -0.675385498046875 122.37699700927735 -1.1487725524902344Q122.88003015136718 -1.6221596069335937 122.88003015136718 -2.560466857910156V-7.699999999999999H123.8009337158203V-2.5732258911132813Q123.8009337158203 -1.6776054077148437 123.45124395751952 -1.0692514953613281Q123.10155419921875 -0.4608975830078125 122.46020028686524 -0.15344879150390622Q121.81884637451172 0.154 120.95875903320312 0.154ZM130.55586145019532 0.154Q129.7117229003906 0.154 129.05315362548828 -0.1454743957519531Q128.39458435058594 -0.4449487915039062 128.01739459228514 -1.0428539123535157Q127.64020483398437 -1.640759033203125 127.64020483398437 -2.539240966796875V-2.776948791503906H128.55472888183593V-2.539240966796875Q128.55472888183593 -1.5806927490234375 129.11259786987304 -1.1170391235351562Q129.67046685791016 -0.653385498046875 130.55586145019532 -0.653385498046875Q131.45225604248046 -0.653385498046875 131.92619430541993 -1.055823760986328Q132.40013256835937 -1.458262023925781 132.40013256835937 -2.0842770996093747Q132.40013256835937 -2.5048102416992184 132.1873916015625 -2.761387054443359Q131.97465063476562 -3.0179638671875 131.5890994262695 -3.175704833984375Q131.20354821777343 -3.33344580078125 130.68511749267577 -3.4590662841796873L130.11189758300782 -3.5999789428710933Q129.4370512084961 -3.768168701171875 128.92131777954103 -4.022048217773437Q128.40558435058594 -4.275927734375 128.11479971313477 -4.688591888427734Q127.82401507568359 -5.101256042480468 127.82401507568359 -5.750584350585937Q127.82401507568359 -6.399912658691406 128.15170483398438 -6.87307681274414Q128.47939459228516 -7.346240966796874 129.0625587463379 -7.600120483398436Q129.64572290039064 -7.853999999999999 130.42386145019532 -7.853999999999999Q131.202 -7.853999999999999 131.82206927490233 -7.585215362548828Q132.4421385498047 -7.316430725097656 132.80282830810546 -6.792171691894531Q133.16351806640625 -6.267912658691406 133.16351806640625 -5.478774108886719V-5.016H132.2489940185547V-5.478774108886719Q132.2489940185547 -6.035927734375 132.01210696411133 -6.379625030517579Q131.77521990966795 -6.723322326660156 131.36249700927732 -6.88496841430664Q130.94977410888671 -7.046614501953124 130.42386145019532 -7.046614501953124Q129.66232830810546 -7.046614501953124 129.2004337158203 -6.713201843261718Q128.73853912353516 -6.3797891845703125 128.73853912353516 -5.763343383789062Q128.73853912353516 -5.352379516601562 128.93390057373045 -5.099707824707031Q129.12926202392578 -4.8470361328125 129.49264907836914 -4.691605407714844Q129.8560361328125 -4.536174682617188 130.3648975830078 -4.413743957519531L130.9381174926758 -4.272831298828125Q131.6069126586914 -4.120262023925781 132.14321536254883 -3.8725978698730463Q132.67951806640625 -3.6249337158203123 132.9970873413086 -3.201269561767578Q133.31465661621093 -2.7776054077148435 133.31465661621093 -2.0970361328125Q133.31465661621093 -1.4164668579101563 132.97277709960937 -0.9103027038574218Q132.63089758300782 -0.4041385498046875 132.0115436706543 -0.12506927490234376Q131.3921897583008 0.154 130.55586145019532 0.154ZM145.3389487915039 0.154Q143.95724096679686 0.154 143.13829217529297 -0.6435Q142.31934338378906 -1.4409999999999998 142.31934338378906 -2.9650512084960936V-4.734948791503906Q142.31934338378906 -6.2589999999999995 143.13829217529297 -7.0565Q143.95724096679686 -7.853999999999999 145.3389487915039 -7.853999999999999Q146.72065661621093 -7.853999999999999 147.53960540771484 -7.0565Q148.35855419921876 -6.2589999999999995 148.35855419921876 -4.734948791503906V-2.9650512084960936Q148.35855419921876 -1.4409999999999998 147.53960540771484 -0.6435Q146.72065661621093 0.154 145.3389487915039 0.154ZM145.3389487915039 -0.675385498046875Q146.34039459228515 -0.675385498046875 146.88902261352538 -1.2733493652343748Q147.43765063476562 -1.8713132324218749 147.43765063476562 -2.936671691894531V-4.763328308105469Q147.43765063476562 -5.828686767578125 146.88902261352538 -6.426650634765625Q146.34039459228515 -7.024614501953125 145.3389487915039 -7.024614501953125Q144.34850299072266 -7.024614501953125 143.79437496948242 -6.426650634765625Q143.24024694824217 -5.828686767578125 143.24024694824217 -4.763328308105469V-2.936671691894531Q143.24024694824217 -1.8713132324218749 143.79437496948242 -1.2733493652343748Q144.34850299072266 -0.675385498046875 145.3389487915039 -0.675385498046875ZM152.39120483398438 0.0V-7.699999999999999H154.18373486328124L156.86084039306638 -0.5838674316406249H157.01197894287108V-7.699999999999999H157.92650299072264V0.0H156.13397296142577L153.4568674316406 -7.123942810058593H153.30572888183593V0.0ZM162.1852048339844 0.0V-7.699999999999999H166.92432830810546V-6.864234985351562H163.1061083984375V-4.285262023925781H166.61632830810547V-3.4494970092773434H163.1061083984375V-0.8357650146484374H166.97470782470702V0.0Z" fill="#8A9793"/></g></svg>